<svg xmlns="http://www.w3.org/2000/svg" viewBox="0 0 136.71 136.71"><g id="Calque_2" data-name="Calque 2"><g id="Calque_1-2" data-name="Calque 1"><path id="contact" d="M8.74,91.83a10.26,10.26,0,0,0-6,12.21L9,126.71a10.34,10.34,0,0,0,9.94,7.6A115.43,115.43,0,0,0,134.31,18.89,10.34,10.34,0,0,0,126.71,9L104,2.77a10.26,10.26,0,0,0-12.21,6L81.52,33.48a10.26,10.26,0,0,0,3,11.92l12.7,10.41a87.05,87.05,0,0,1-41.4,41.4L45.43,84.51a10.29,10.29,0,0,0-11.93-3L8.77,91.83Z" fill="none" stroke="#333131" stroke-miterlimit="10" stroke-width="4.8"/></g></g></svg>